<?xml version="1.0" encoding="utf-8"?>
<!-- Generator: Adobe Illustrator 25.2.0, SVG Export Plug-In . SVG Version: 6.00 Build 0)  -->
<svg version="1.1" id="レイヤー_1" xmlns="http://www.w3.org/2000/svg" xmlns:xlink="http://www.w3.org/1999/xlink" x="0px"
	 y="0px" viewBox="0 0 291 95" style="enable-background:new 0 0 291 95;" xml:space="preserve">
<g>
	<polygon points="169.38,79.5 175.38,73.83 162.39,73.83 	"/>
	<path d="M206.55,10.83c4.3,0.99,10.29,1.39,20.69,1.39c0.6,0,1.6,0,2.8,0c2-4.77,2.7-7.45,3.1-11.03l18.29,1.39
		c-0.8,1.49-0.9,1.59-2.1,4.67c-1.3,2.88-1.9,4.47-2,4.67c1-0.1,1-0.1,6.1-0.4c9.79-0.5,19.99-1.79,25.28-3.18l0.6,15.8
		c-3.1,0.3-6.1,0.6-8.99,0.89c-7.1,0.7-19.59,1.39-29.78,1.69c-1.7,2.98-2.4,4.17-4.8,7.35c4.3-1.99,8.4-2.98,12.69-2.98
		c8.29,0,13.29,3.18,15.29,9.64c1.7-0.6,1.7-0.6,7-2.39c0.3-0.1,3-0.99,6.2-1.99c5.7-1.89,6.4-2.09,7.99-2.98l6.1,15.7
		c-5.2,0.7-15.89,3.48-25.48,6.76c0.1,2.68,0.1,2.78,0.1,7.15c0,4.47,0.1,5.96,0.4,8.55l-16.29,0.5c0.3-1.49,0.4-4.57,0.5-10.53
		l-0.9,0.4c-4.6,2.19-5.2,2.58-7,4.17c-1.7,1.49-2.6,3.28-2.6,5.07c0,3.78,3.7,5.27,13.39,5.27c11.99,0,23.49-1.79,31.98-4.97
		l1.1,17.89c-2.9,0.1-2.9,0.1-8.9,0.89c-7.99,0.99-16.29,1.49-24.08,1.49c-11.29,0-18.39-1.39-23.79-4.57
		c-5-2.88-7.89-8.15-7.89-14.11c0-4.67,1.5-8.45,4.9-12.52c3.7-4.27,8.19-7.55,14.39-10.63c2.4-1.19,3.4-1.59,7.4-3.38
		c-0.9-1.69-2.1-2.48-4-2.48c-5.1,0-11.99,3.48-18.99,9.54c-4.2,3.68-6.9,6.46-9.59,10.04l-12.69-12.52
		c3.2-2.38,7.4-6.46,10.59-10.33c2.2-2.68,6.2-8.45,7.7-10.83c1.5-2.48,1.5-2.48,1.9-3.18c-1.4,0-2.5,0-3.2,0c-4.3,0-4.3,0-8.59-0.1
		c-1.4-0.1-2.1-0.1-3.5-0.1c-0.2,0-0.8,0-1.5,0L206.55,10.83z"/>
	<rect x="23.58" y="8.35" width="22.79" height="7.16"/>
	<rect x="64.98" y="8.25" width="28.46" height="3.68"/>
	<rect x="2.1" y="50.18" width="90.84" height="15"/>
	<rect x="103.33" y="6.06" width="42.27" height="13.52"/>
	<rect x="117.82" y="0.99" width="15.79" height="8.56"/>
	<rect x="147.7" y="2.78" width="46.27" height="14.41"/>
	<path d="M181.32,74.03h8.46c0.6,0.03,1.22,0.06,1.89,0.1c0-0.03,0-0.07-0.01-0.1h0.01V20.97h-15.09c0.92-1.83,1.22-2.55,1.9-4.17
		h3.7c5.7,0,8.79,0.1,11.79,0.4V2.78c-2.8,0.4-5.6,0.5-11.79,0.5h-23.09c-6,0-8.59-0.1-11.39-0.5v14.41c3.3-0.3,6-0.4,11.39-0.4h4.1
		c-0.49,0.97-0.5,1-2,4.17H149v52.47l-6.7-7.35c-6.1,5.37-8.79,7.15-15.89,10.83c-4.7,2.39-7.69,3.68-12.99,5.37
		c1.4-4.47,2.2-8.35,2.8-13.91c1.9,2.39,3,3.88,4.6,6.76c11.19-4.67,15.89-7.75,27.18-17.49l-8.69-8.15
		c-5.9,5.96-13.19,10.53-22.49,14.01c0.4-4.07,0.5-7.06,0.7-11.92c2.3,2.78,2.8,3.38,4.3,5.86c9.09-4.07,13.09-6.76,20.79-13.71
		l-3.96-2.68h8.26V27.53h-6.65c0.77-2.09,1.71-5.16,2.65-8.15c1.1,0,1.1,0,2.7,0.2V6.16c-2.3,0.3-4.4,0.4-8.49,0.4h-4
		c0-2.58,0.1-3.58,0.5-5.56h-15.79c0.4,1.69,0.5,2.88,0.5,5.56h-6c-4.4,0-6.2-0.1-8.99-0.5v13.52c2.1-0.2,2.6-0.3,5.6-0.3
		c1.05,2.56,1.81,5.56,2.23,8.25h-7.63c0.2,4.07,0.2,5.86,0.2,10.53c0,21.76-1.2,31.1-4.9,39.55c3.9,4.47,6.2,8.25,9.69,16
		c2.1-3.68,2.8-5.17,4.1-8.74c2.6,3.08,4.3,5.56,6.3,9.64c11.89-4.57,18.59-8.35,28.88-16.4c0.7-0.6,1.8-1.39,3.2-2.48l-1.5-1.59
		h8.38c-4.23,3.95-8.62,6.41-16.68,9.34c3.9,4.37,6.1,7.55,8.2,11.63c9.59-4.57,13.49-7.25,20.19-14.01
		c6.2,6.16,9.29,8.55,17.29,13.61c2.5-4.17,5.3-8.15,8.89-12.62C188.81,79.16,185.31,77.28,181.32,74.03z M129.81,19.28
		c-0.6,2.98-1.3,5.37-2.6,8.65h-3.3c-0.4-2.48-1.1-5.66-1.9-8.65H129.81z M117.72,40.74h11.09c-3.5,2.29-6.9,3.97-11.19,5.66
		L117.72,40.74z M176.88,62.11h-13.69v-3.78h13.69V62.11z M176.88,48.89h-13.69v-3.48h13.69V48.89z M176.88,36.07h-13.69v-3.58
		h13.69V36.07z"/>
	<path d="M74.85,74.63c-6.8-2.39-12.39-5.96-15.69-10.04h20.69c5.4,0,9.89,0.2,13.09,0.6v-15c-3,0.4-7.2,0.6-13.09,0.6H54.66
		c0.2-2.19,0.3-3.18,0.4-6.36c11.39-1.19,17.79-2.19,30.58-4.47l-9.19-9.74l5.9-1.19c-0.94-2.53-1.54-3.92-2.69-6.16h13.78v-3.3
		V8.25c-2.5,0.4-5,0.5-10.09,0.5H67.06c1.4-3.48,2.3-5.76,2.7-6.66L54.26,0c-1.1,5.76-3.3,10.63-7.89,17.39V8.35
		c-2.6,0.4-5,0.5-8.69,0.5H27.28c1-2.09,1-2.09,3-6.36L14.99,0.2c-1.4,4.47-2.6,7.06-5,10.63C7.09,15.2,4.4,18.28,0,22.16
		c4.1,3.88,6.1,6.36,9.29,11.33c4.6-4.17,6.3-6.06,9.99-11.13h2.5c1.4,3.48,2.2,6.06,3.1,9.94l14.99-2.78c-1.4-3.48-1.8-4.57-3-7.15
		h2.6c1.1,0,1.7,0,3,0l-0.7,0.79c4.6,3.38,6.6,5.07,10.19,8.94c-9.59,1.19-26.38,2.09-38.87,2.09c-1.1,0-3,0-5.3-0.1
		c2.6,4.77,3.8,7.65,5.3,12.52c10.49-0.1,17.59-0.3,26.58-0.89c0,2.09-0.1,3.38-0.3,5.07H15.09c-5.4,0-9.49-0.2-12.99-0.6v15
		c3.6-0.4,7.6-0.6,12.99-0.6h19.59c-3,4.37-6.8,7.35-12.49,9.74c-5.9,2.58-11.09,3.78-21.39,4.97c3.5,5.47,4.7,8.05,7.1,15
		c12.59-2.48,19.19-4.77,26.08-9.04c5.9-3.58,10.09-7.65,13.79-13.42c3.5,5.17,8.39,9.64,15.09,13.61
		c7.69,4.67,14.19,6.96,25.28,8.94c2-6.66,3.8-10.63,7-16.1C86.94,77.71,80.65,76.62,74.85,74.63z M60.46,22.46h4
		c1.2,2.88,1.7,4.17,2.6,7.16c-4.5,0.99-7.69,1.49-13.29,2.29C56.96,27.92,58.06,26.33,60.46,22.46z"/>
	<path d="M206.55,10.83c0,0,26.33,3.39,72.15-2.48l0.6,15.8c0,0-45.46,4.97-72.95,2.39L206.55,10.83z"/>
	<path d="M233.14,1.19c0,0-8.9,32.99-30.18,49.88l12.69,12.52c0,0,30.27-39.9,35.78-61.02L233.14,1.19z"/>
	<path d="M285.1,71.45c0,0-43.35,9.57-45.37-0.3S291,49.09,291,49.09l-6.1-15.7c0,0-63.36,11.48-63.36,39.65s64.66,16.3,64.66,16.3
		L285.1,71.45z"/>
</g>
</svg>
