<?xml version="1.0" encoding="utf-8"?>
<!-- Generator: Adobe Illustrator 25.1.0, SVG Export Plug-In . SVG Version: 6.00 Build 0)  -->
<svg version="1.1" id="レイヤー_1" xmlns="http://www.w3.org/2000/svg" xmlns:xlink="http://www.w3.org/1999/xlink" x="0px"
	 y="0px" viewBox="0 0 575 85" style="enable-background:new 0 0 575 85;" xml:space="preserve">
<g>
	<path d="M51.83,49.96l20,6.73c-1.34,6.24-3.46,11.46-6.35,15.64c-2.89,4.19-6.47,7.34-10.75,9.48C50.45,83.93,45,85,38.38,85
		c-8.03,0-14.58-1.3-19.67-3.89c-5.09-2.6-9.48-7.16-13.17-13.7S0,52.5,0,42.3c0-13.6,3.25-24.05,9.75-31.35
		C16.25,3.65,25.44,0,37.33,0c9.3,0,16.61,2.09,21.94,6.28c5.32,4.19,9.28,10.62,11.86,19.29l-20.15,4.99
		c-0.71-2.5-1.44-4.34-2.22-5.49c-1.28-1.94-2.84-3.44-4.68-4.49c-1.85-1.05-3.91-1.57-6.2-1.57c-5.17,0-9.13,2.32-11.89,6.94
		c-2.08,3.43-3.12,8.83-3.12,16.18c0,9.11,1.24,15.35,3.73,18.73c2.49,3.38,5.98,5.07,10.48,5.07c4.37,0,7.66-1.36,9.9-4.09
		C49.2,59.12,50.83,55.15,51.83,49.96z"/>
	<path d="M83.22,83.6V1.4h38.03c7.05,0,12.44,0.67,16.17,2.02c3.73,1.35,6.73,3.84,9.02,7.49c2.28,3.64,3.43,8.08,3.43,13.32
		c0,4.56-0.87,8.49-2.62,11.8c-1.75,3.31-4.15,5.99-7.21,8.05c-1.95,1.31-4.62,2.39-8.01,3.25c2.72,1.01,4.7,2.02,5.94,3.03
		c0.84,0.67,2.06,2.11,3.65,4.32c1.59,2.21,2.66,3.91,3.2,5.11l11.05,23.82h-25.78l-12.2-25.12c-1.54-3.25-2.92-5.36-4.13-6.34
		c-1.65-1.27-3.51-1.91-5.59-1.91h-2.01V83.6H83.22z M106.13,34.71h9.62c1.04,0,3.06-0.37,6.04-1.12c1.51-0.34,2.74-1.2,3.7-2.58
		c0.96-1.38,1.44-2.97,1.44-4.77c0-2.65-0.76-4.69-2.27-6.11c-1.51-1.42-4.35-2.13-8.51-2.13h-10.02V34.71z"/>
	<path d="M163.11,1.4h61.15v17.55h-38.28v13.06h35.51v16.76h-35.51v16.2h39.39V83.6h-62.26V1.4z"/>
	<path d="M283.06,70.03h-25.91l-3.6,13.57h-23.3l27.76-82.2h24.89l27.75,82.2h-23.9L283.06,70.03z M278.32,52.26l-8.15-29.55
		l-8.07,29.55H278.32z"/>
	<path d="M312.71,1.4h69.36v20.3H358.8v61.9h-22.82V21.7h-23.27V1.4z"/>
	<path d="M393.31,1.4h22.87v82.2h-22.87V1.4z"/>
	<path d="M425.3,1.4h23.85l16.62,59.15L482.18,1.4h23.16l-27.42,82.2h-24.73L425.3,1.4z"/>
	<path d="M512.74,1.4h61.15v17.55h-38.28v13.06h35.51v16.76h-35.51v16.2H575V83.6h-62.26V1.4z"/>
</g>
</svg>
