<?xml version="1.0" encoding="utf-8"?>
<!-- Generator: Adobe Illustrator 25.1.0, SVG Export Plug-In . SVG Version: 6.00 Build 0)  -->
<svg version="1.1" id="レイヤー_1" xmlns="http://www.w3.org/2000/svg" xmlns:xlink="http://www.w3.org/1999/xlink" x="0px"
	 y="0px" viewBox="0 0 228 85" style="enable-background:new 0 0 228 85;" xml:space="preserve">
<g>
	<path d="M0,1.4h56.52v17.66H22.96v14.35h28.66v16.6H22.96V83.6H0V1.4z"/>
	<path d="M65.96,42.56c0-13.42,3.36-23.87,10.09-31.34C82.78,3.74,92.15,0,104.16,0c12.31,0,21.8,3.67,28.46,11.02
		c6.66,7.34,9.99,17.63,9.99,30.87c0,9.61-1.46,17.48-4.36,23.63c-2.91,6.15-7.12,10.93-12.62,14.35
		c-5.5,3.42-12.36,5.13-20.56,5.13c-8.34,0-15.25-1.48-20.72-4.43c-5.47-2.95-9.9-7.63-13.3-14.02S65.96,52.16,65.96,42.56z
		 M88.82,42.67c0,8.3,1.39,14.26,4.16,17.89c2.78,3.63,6.55,5.44,11.33,5.44c4.91,0,8.71-1.78,11.41-5.33
		c2.69-3.55,4.04-9.92,4.04-19.12c0-7.74-1.41-13.39-4.21-16.96c-2.81-3.57-6.62-5.35-11.43-5.35c-4.61,0-8.31,1.81-11.1,5.44
		C90.21,28.3,88.82,34.3,88.82,42.67z"/>
	<path d="M155.23,83.6V1.4h38.1c7.07,0,12.46,0.67,16.2,2.02c3.73,1.35,6.75,3.84,9.03,7.49s3.43,8.08,3.43,13.32
		c0,4.56-0.87,8.49-2.63,11.8c-1.75,3.31-4.16,5.99-7.22,8.05c-1.95,1.31-4.63,2.39-8.03,3.25c2.72,1.01,4.71,2.02,5.95,3.03
		c0.84,0.67,2.06,2.11,3.66,4.32c1.6,2.21,2.66,3.91,3.2,5.11L228,83.6h-25.83l-12.22-25.12c-1.55-3.25-2.93-5.36-4.14-6.34
		c-1.65-1.27-3.52-1.91-5.6-1.91h-2.02V83.6H155.23z M178.19,34.71h9.64c1.04,0,3.06-0.37,6.06-1.12c1.51-0.34,2.75-1.2,3.71-2.58
		c0.96-1.38,1.44-2.97,1.44-4.77c0-2.65-0.76-4.69-2.27-6.11c-1.51-1.42-4.36-2.13-8.53-2.13h-10.04V34.71z"/>
</g>
</svg>
