<?xml version="1.0" encoding="utf-8"?>
<!-- Generator: Adobe Illustrator 25.1.0, SVG Export Plug-In . SVG Version: 6.00 Build 0)  -->
<svg version="1.1" id="レイヤー_1" xmlns="http://www.w3.org/2000/svg" xmlns:xlink="http://www.w3.org/1999/xlink" x="0px"
	 y="0px" viewBox="0 0 687 195" style="enable-background:new 0 0 687 195;" xml:space="preserve">
<g>
	<path d="M329.7,46.7c-19.86,0-33.79,5.92-47.95,19.82c-2.97-5.69-5.25-8.43-9.36-11.39c-7.53-5.47-17.35-8.2-29.23-8.2
		c-16.99,0-30.33,5.26-41.56,16.53V50.57h-1.83h-45.21v138.96h47.04v-84.4c6.47-13.01,16.17-20.39,27.4-20.39
		c5.48,0,10.05,2.05,12.56,5.7c0.53,0.7,0.98,1.43,1.39,2.18v96.91h0.67h47.49h3.01V99.11c5.93-9.29,14.14-14.6,23.02-14.6
		c8.56,0,13.65,2.89,16.14,9.71v95.31h45.74V98.78l0,0C378.98,64.44,362.32,46.7,329.7,46.7z"/>
	<path d="M113.02,111.85c-7.99-4.1-15.07-6.15-37.45-10.93c-22.6-5.01-27.4-7.29-27.4-13.44c0-5.92,7.31-9.8,19.18-9.8
		c12.33,0,18.04,4.1,19.18,13.44l44.07-4.78c-3.65-12.76-7.31-19.36-14.84-25.97c-10.73-9.8-26.94-14.58-48.63-14.58
		C29,45.79,5.94,62.42,5.94,89.75c0,7.75,2.05,15.49,5.71,21.64c4.34,6.83,11.87,12.07,22.83,16.17c7.54,2.51,16.44,4.78,33.79,8.2
		c12.56,2.51,15.53,3.42,18.72,5.24c3.2,1.82,5.02,4.78,5.02,8.2c0,7.06-7.76,10.93-21.46,10.93c-15.3,0-23.06-5.24-25.34-17.09
		L0,148.07c2.28,10.93,4.57,16.4,9.13,22.78c10.96,15.03,31.28,22.78,60.05,22.78c24.43,0,43.15-5.7,54.11-16.63
		c7.54-7.29,11.65-18.23,11.65-30.3C134.94,130.3,127.86,119.14,113.02,111.85z"/>
	<polygon points="452.29,50.57 452.29,50.57 404.57,50.57 404.57,50.57 404.57,189.53 404.57,189.53 452.29,189.53 452.29,189.53 
		452.29,189.53 452.29,50.58 	"/>
	<rect x="405.25" width="46.35" height="34.17"/>
	<path d="M638.36,152.63c-5.94,5.47-13.93,8.43-23.06,8.43c-18.04,0-28.77-9.8-31.05-28.25H687c-0.23-2.28-0.23-3.64-0.23-4.56
		c-0.68-12.99-1.6-22.55-3.42-29.84c-7.99-33.94-32.88-53.31-68.5-53.31c-43.61,0-72.61,29.84-72.61,74.95
		c0,22.55,7.31,41.92,20.78,55.58c13.01,12.98,30.6,19.36,52.97,19.36c22.6,0,40.87-6.61,53.89-19.36
		c6.39-6.38,9.82-11.62,15.07-23.46l-39.73-11.16C643.39,146.93,641.79,149.44,638.36,152.63z M614.85,79.05
		c15.75,0,25.57,7.75,28.77,22.33h-58.68C588.82,86.34,598.64,79.05,614.85,79.05z"/>
	<rect x="476.49" width="47.72" height="189.53"/>
</g>
</svg>
