<?xml version="1.0" encoding="utf-8"?>
<!-- Generator: Adobe Illustrator 18.1.1, SVG Export Plug-In . SVG Version: 6.00 Build 0)  -->
<svg version="1.1" id="レイヤー_1" xmlns="http://www.w3.org/2000/svg" xmlns:xlink="http://www.w3.org/1999/xlink" x="0px"
	 y="0px" viewBox="0 0 224.528 33.672" enable-background="new 0 0 224.528 33.672" xml:space="preserve">
<g>
	<path fill="#0066AD" d="M33.585,16.879c0,9.274-7.518,16.793-16.792,16.793C7.518,33.672,0,26.153,0,16.879
		C0,7.605,7.518,0.088,16.793,0.088C26.066,0.088,33.585,7.605,33.585,16.879"/>
	<polygon fill="#FFFFFF" points="20.448,5.976 17.535,11.09 20.187,15.738 12.512,19.91 9.324,25.508 14.235,25.508 23.023,20.715 
		25.584,25.204 31.413,25.204 	"/>
	<polygon fill="#FFFFFF" points="20.131,5.723 20.045,5.571 16.867,0 2.35,25.508 8.871,25.508 17.306,10.686 	"/>
	<path d="M63.42,16.631h-9.202c0,0.574-0.431,0.574-0.819,0.595c-0.595,0.942-1.004,1.517-1.578,2.214h6.742l0.676-0.82
		c0.287-0.348,0.41-0.348,0.574-0.348c0.184,0,0.369,0,0.614,0.204l1.394,1.106c0.123,0.082,0.225,0.226,0.225,0.41
		c0,0.062-0.02,0.246-0.143,0.41c-0.041,0.06-0.389,0.389-0.451,0.471v4.55c0,0.431,0,0.636-0.43,0.819
		c-0.779,0.308-1.742,0.308-1.763,0.308c-0.245,0-0.554-0.082-0.554-0.513v-0.614h-7.069v0.349c0,0.205-0.021,0.389-0.39,0.573
		c-0.635,0.308-1.639,0.41-1.783,0.41c-0.307,0-0.573-0.144-0.573-0.595v-3.934c-1.987,1.351-3.341,1.7-4.078,1.885l-0.103-0.184
		c1.435-0.8,2.992-2.439,4.181-4.446v-0.882l0.431,0.122c0.451-0.881,0.676-1.475,0.881-2.09h-4.713l-0.246-0.471h14.939
		l1.086-1.311c0.082-0.103,0.143-0.185,0.328-0.185c0.122,0,0.225,0.061,0.367,0.164l1.6,1.168c0.102,0.062,0.205,0.225,0.205,0.349
		C63.768,16.549,63.604,16.631,63.42,16.631 M61.759,10.217v3.566c0,0.799-1.618,0.983-2.151,0.983
		c-0.451,0-0.533-0.267-0.533-0.573v-0.41h-9.181c0,0.594,0,0.676-0.226,0.86c-0.389,0.308-1.373,0.431-1.721,0.431
		c-0.492,0-0.636-0.184-0.636-0.697V9.172l2.767,0.205c0.246,0.021,0.492,0.041,0.492,0.328c0,0.226-0.164,0.328-0.677,0.615v3.012
		h3.341V8.311l2.869,0.205c0.123,0,0.389,0.04,0.389,0.349c0,0.287-0.246,0.368-0.758,0.594v3.873h3.34V9.09l2.889,0.226
		c0.289,0.021,0.492,0.062,0.492,0.308C62.455,9.869,62.252,10.033,61.759,10.217 M58.705,19.89h-7.068v5.081h7.068V19.89z"/>
	<path d="M85.764,10.914v14.057c0,0.924-1.086,1.292-2.028,1.292c-0.718,0-0.759-0.267-0.759-0.942v-1.045H72.034v0.86
		c0,0.472-0.062,0.718-0.349,0.901c-0.328,0.205-1.127,0.472-1.762,0.472c-0.328,0-0.656-0.123-0.656-0.614V8.209l2.91,1.414h10.615
		l0.553-0.84c0.226-0.349,0.451-0.472,0.717-0.472c0.205,0,0.369,0.082,0.636,0.286l1.353,1.066
		c0.103,0.082,0.226,0.224,0.226,0.471C86.276,10.34,86.235,10.402,85.764,10.914 M76.174,10.074h-4.141v6.578h4.141V10.074z
		 M76.174,17.103h-4.141v6.7h4.141V17.103z M82.977,10.074H79.33c0.061,0.082,0.102,0.143,0.102,0.287
		c0,0.409-0.328,0.512-0.656,0.594v5.697h4.201V10.074z M82.977,17.103h-4.201v6.7h4.201V17.103z"/>
	<path d="M109.072,25.955c-0.021,0.349-0.041,0.41-1.68,0.41c-1.723,0-6.66-0.062-8.033-0.348c-2.07-0.451-3.259-1.6-3.977-2.398
		c-0.696,0.799-1.967,2.131-4.405,2.91l-0.103-0.205c1.578-1.168,2.562-2.438,3.402-4.098c-0.8-1.373-1.209-3.033-1.291-5.001
		l0.225-0.021c0.41,1.537,1.148,3.074,1.681,3.689c0.819-1.968,1.106-3.546,1.271-4.939h-1.394
		c-0.431,0.922-0.532,1.147-1.394,1.147c-0.225,0-1.517-0.103-1.517-0.696c0-0.186,0.062-0.287,0.308-0.717
		c0.43-0.697,1.947-3.689,2.418-5.451h-3.115l-0.246-0.451h3.361l0.861-0.738c0.184-0.142,0.368-0.246,0.553-0.246
		c0.144,0,0.349,0.103,0.43,0.185l1.292,1.065c0.185,0.164,0.185,0.41,0.185,0.451c0,0.492-0.595,0.697-0.881,0.779
		c-0.677,1.393-1.373,2.807-2.05,4.201h1.106l0.553-0.636c0.164-0.185,0.35-0.308,0.595-0.308c0.185,0,0.41,0.103,0.554,0.226
		l0.676,0.573h2.808v-2.254H97.31l-0.245-0.471h4.2v-2.234h-2.315l-0.246-0.45h2.562V8.209l2.787,0.267
		c0.123,0.02,0.409,0.081,0.409,0.327c0,0.287-0.348,0.472-0.594,0.574v0.554h1.291l0.492-0.595
		c0.164-0.205,0.328-0.307,0.594-0.307c0.144,0,0.369,0.102,0.492,0.184l1.291,1.004c0.102,0.082,0.184,0.205,0.184,0.369
		c0,0.246-0.163,0.472-0.594,0.861v1.168l0.553-0.943c0.104-0.164,0.227-0.205,0.328-0.205c0.145,0,0.246,0.082,0.369,0.205
		l0.881,0.779c0.123,0.123,0.205,0.184,0.205,0.348c0,0.186-0.143,0.287-0.348,0.287h-1.988v2.172c0,0.492,0,0.697-0.942,1.005
		c-0.267,0.082-0.759,0.226-0.983,0.226c-0.39,0-0.39-0.349-0.39-0.697h-1.434v1.967h1.783l0.819-1.045
		c0.082-0.102,0.143-0.205,0.328-0.205c0.122,0,0.144,0.021,0.39,0.186l1.229,0.86c0.123,0.082,0.227,0.204,0.227,0.39
		c0,0.205-0.186,0.266-0.35,0.266h-4.426v2.009h2.643l0.923-1.147c0.082-0.103,0.143-0.184,0.327-0.184
		c0.144,0,0.226,0.061,0.39,0.184l1.188,0.942c0.104,0.082,0.205,0.226,0.205,0.39c0,0.205-0.184,0.266-0.348,0.266h-5.328v1.947
		c0,0.308,0,0.41-0.266,0.574c-0.615,0.369-1.414,0.512-1.66,0.512c-0.677,0-0.677-0.389-0.677-0.717v-2.316h-3.319l-0.246-0.45
		h3.565v-2.009h-2.521l-0.246-0.451h2.767v-1.967h-2.254c0.122,0.123,0.204,0.205,0.204,0.328c0,0.267-0.164,0.348-0.635,0.574
		c-0.287,1.25-1.065,3.914-2.254,5.635c1.844,1.537,3.135,1.681,6.455,1.681c1.127,0,4.979-0.041,7.172-0.267l0.082,0.205
		C109.216,24.603,109.134,25.341,109.072,25.955 M105.302,10.381h-1.435v2.234h1.435V10.381z M105.302,13.086h-1.435v2.254h1.435
		V13.086z"/>
	<path d="M122.34,12.472h-8.197l-0.246-0.451h5.656l0.942-1.27c0.062-0.082,0.144-0.205,0.327-0.205
		c0.145,0,0.227,0.082,0.369,0.185l1.312,1.086c0.082,0.062,0.205,0.246,0.205,0.39C122.709,12.41,122.523,12.472,122.34,12.472
		 M121.479,9.971h-6.517l-0.245-0.45h4.057l0.84-1.065c0.082-0.102,0.164-0.185,0.328-0.185c0.104,0,0.268,0.103,0.369,0.164
		l1.332,0.881c0.082,0.041,0.185,0.226,0.185,0.39C121.827,9.91,121.643,9.971,121.479,9.971 M121.459,20.977v3.77
		c0,0.8-1.436,1.066-1.742,1.066c-0.309,0-0.615-0.185-0.615-0.349v-0.492h-2.152v0.655c0,0.801-1.024,0.984-1.496,0.984
		c-0.328,0-0.736-0.041-0.736-0.594v-7.193l2.314,1.024h2.029l0.512-0.737c0.164-0.226,0.35-0.349,0.574-0.349
		c0.164,0,0.41,0.103,0.533,0.206l1.086,0.818c0.205,0.144,0.369,0.267,0.369,0.472C122.135,20.463,122.072,20.525,121.459,20.977
		 M121.438,15.074h-6.25l-0.246-0.472h4.16l0.697-1.107c0.061-0.102,0.184-0.205,0.326-0.205c0.145,0,0.227,0.062,0.37,0.185
		l1.106,0.942c0.082,0.062,0.205,0.246,0.205,0.369C121.807,14.992,121.623,15.074,121.438,15.074 M131.5,26.16
		c-0.041,0.349-0.062,0.595-0.328,0.595c-0.082,0-2.705-0.677-4.734-2.602c-2.438,1.619-4.814,2.172-6.105,2.418l-0.062-0.205
		c1.209-0.615,3.094-1.639,5-3.504c-1.516-2.029-1.865-4.037-1.967-5.205h-1.086c-0.021,0.021-0.041,0.041-0.104,0.082
		c-0.041,0.02-0.101,0.061-0.225,0.061h-6.496l-0.246-0.45h3.955l0.861-1.291c0.061-0.102,0.162-0.205,0.348-0.205
		c0.164,0,0.205,0.103,0.349,0.205l0.901,0.696c1.025-1.352,1.25-3.135,1.25-4.242V8.435l2.357,1.004h1.823l0.696-0.778
		c0.104-0.123,0.328-0.349,0.656-0.349c0.041,0,0.287,0.021,0.451,0.164l1.127,0.942c0.205,0.185,0.225,0.41,0.225,0.471
		c0,0.185-0.06,0.247-0.676,0.738v2.439c0,0.307,0.226,0.409,0.39,0.409h1.004c0.39,0,0.696-1.106,1.332-3.299l0.205,0.061
		l-0.185,2.807c-0.02,0.308,0.021,0.369,0.205,0.533c0.143,0.144,0.389,0.43,0.389,0.799c0,0.84-0.758,1.271-1.393,1.271h-2.664
		c-1.332,0-1.783-0.943-1.783-1.742V9.91h-1.762v1.352c0,2.378-1.127,4.673-3.238,5.82c0.101,0.062,0.101,0.082,0.142,0.123h6.682
		l0.573-0.676c0.062-0.062,0.349-0.39,0.718-0.39c0.184,0,0.389,0.102,0.532,0.226l1.394,1.373c0.082,0.082,0.102,0.184,0.102,0.287
		c0,0.389-0.327,0.471-0.759,0.532c-1.516,2.521-2.377,3.464-3.053,4.078c1.291,0.677,3.012,1.086,4.611,1.333l0.02,0.184
		C132.401,24.521,131.643,25.013,131.5,26.16 M119.102,20.32h-2.152v4.201h2.152V20.32z M123.938,17.656
		c0.615,2.131,1.947,3.32,2.604,3.852c1.004-1.25,1.7-2.581,2.027-3.852H123.938z"/>
	<path d="M155.423,23.066c-0.267,0.389-0.574,1.086-0.574,1.414c0,0.123-0.021,0.247-0.185,0.247c-0.164,0-2.396-1.415-3.729-5.37
		v6.393c0,0.35-0.021,0.554-0.637,0.82c-0.572,0.246-1.146,0.267-1.27,0.267c-0.697,0-0.697-0.431-0.697-0.655v-5.492
		c-1.475,1.7-3.791,3.627-6.271,4.405v0.614c0,0.718-1.393,1.169-1.781,1.169c-0.801,0-0.801-0.287-0.801-0.677v-6.373
		c-0.102,0.082-0.225,0.205-1.146,1.291c-0.369,0.431-1.107,1.045-1.722,1.558l-0.163-0.144c1.064-1.701,2.438-6.004,2.663-9.59
		h-2.151l-0.246-0.472h2.766V8.127l2.91,0.349c0.268,0.041,0.432,0.061,0.432,0.327c0,0.205-0.123,0.328-0.76,0.533v3.136h0.186
		l0.941-1.169c0.104-0.102,0.166-0.204,0.35-0.204c0.123,0,0.184,0.041,0.369,0.184l1.105,0.82c0.145-0.678,0.227-1.292,0.227-1.988
		c0-0.328-0.021-0.533-0.041-0.738l2.971,0.635c0.062,0.021,0.123,0.062,0.164,0.082V8.086l2.869,0.287
		c0.226,0.022,0.451,0.041,0.451,0.41c0,0.307-0.513,0.348-0.717,0.45v3.156h1.146l1.004-1.23c0.104-0.123,0.164-0.205,0.328-0.205
		c0.082,0,0.144,0,0.369,0.185l1.373,1.065c0.103,0.082,0.205,0.226,0.205,0.348c0,0.227-0.164,0.287-0.349,0.287h-4.077v3.709
		h1.823l1.024-1.311c0.082-0.103,0.164-0.205,0.328-0.205c0.164,0,0.225,0.062,0.369,0.184l1.332,1.148
		c0.082,0.061,0.205,0.225,0.205,0.369c0,0.184-0.145,0.287-0.35,0.287h-4.672c0.656,1.475,2.172,3.75,5.328,5.102v0.205
		C156.059,22.472,155.709,22.677,155.423,23.066 M142.061,12.943v1.721c0.801,0.287,1.271,0.553,1.824,0.902
		c0.574-1.291,0.801-2.131,0.943-2.623H142.061z M145.34,17.021c0.186,0.491,0.227,0.84,0.227,1.045
		c0,1.045-0.718,1.579-1.436,1.579c-1.168,0-1.209-0.801-1.291-1.825c-0.061-0.963-0.451-1.517-0.779-1.967v8.792
		c2.215-1.661,3.75-3.668,4.898-7.624H145.34z M148.332,12.84H147c-0.471,0.841-1.414,2.255-2.355,3.259
		c0.225,0.184,0.307,0.287,0.43,0.45h3.258V12.84z M148.332,10.832c-0.307,0.082-0.369,0.103-0.533,0.184
		c-0.102,0.368-0.205,0.696-0.553,1.373h1.086V10.832z"/>
	<path d="M177.727,23.66c-0.061,0.328-0.02,0.615,0.145,0.881c0.43,0.697,0.553,0.902,0.553,1.291c0,0.677-0.512,1.066-1.025,1.066
		c-0.717,0-6.107-1.291-7.684-9.16c-0.082,0.02-0.082,0.02-0.145,0.02h-2.725c0.041,0.082,0.082,0.123,0.082,0.246
		c0,0.287-0.186,0.39-0.555,0.615v3.75c0.637-0.082,3.465-0.471,4.039-0.553l0.02,0.205c-2.705,1.598-5.595,2.869-8.504,4.078
		c-0.145,0.43-0.205,0.614-0.473,0.614c-0.204,0-0.266-0.205-0.307-0.349l-0.943-3.156c0.554-0.061,3.055-0.409,3.566-0.491v-4.96
		h-3.607l-0.245-0.471h6.661l1.064-1.414c0.061-0.082,0.145-0.184,0.328-0.184c0.164,0,0.266,0.081,0.369,0.184l1.25,1.107
		c-0.268-1.968-0.369-3.197-0.41-3.73h-9.181l-0.246-0.471h9.386c-0.164-2.705-0.164-3.812-0.164-4.611l3.32,0.389
		c0.285,0.041,0.307,0.083,0.408,0.185c1.25-0.061,3.034,0.307,3.034,1.782c0,0.718-0.534,1.394-1.311,1.394
		c-0.799,0-0.984-0.737-1.168-1.414c-0.205-0.799-0.41-1.086-0.719-1.25c-0.162,0.082-0.244,0.123-0.572,0.226
		c-0.041,0.819-0.104,1.782-0.104,3.3h2.992l1.045-1.394c0.062-0.082,0.145-0.204,0.328-0.204c0.145,0,0.227,0.061,0.369,0.185
		l1.64,1.228c0.062,0.062,0.204,0.164,0.204,0.369c0,0.205-0.184,0.287-0.348,0.287h-6.209c0.041,3.361,0.777,6.64,2.91,9.078
		c0.164,0.205,0.758,0.881,1.393,0.881c0.432,0,0.595-0.327,0.759-0.655c0.532-1.086,0.718-1.517,1.291-3.032l0.204,0.041
		L177.727,23.66z"/>
	<path d="M200.502,15.504c-0.143,0.574-0.184,0.738-0.45,0.738c-0.164,0-0.431-0.123-0.759-0.287
		c-3.523-1.66-5.021-3.832-6.394-6.168c-0.121,0.041-0.143,0.041-0.266,0.062c-1.68,2.561-4.652,5.595-9.938,7.069l-0.123-0.184
		c2.746-1.6,5.759-4.201,7.542-8.771l3.176,1.025c0.185,0.061,0.185,0.143,0.185,0.184c0,0.164-0.103,0.267-0.144,0.349
		c2.172,2.459,5.41,3.709,8.709,3.955l0.041,0.205C200.809,14.275,200.564,15.238,200.502,15.504 M200.912,19.664h-8.504
		c0.061,0.369-0.062,0.39-0.471,0.492c-1.025,1.414-2.215,2.767-3.361,3.832c2.848-0.185,4.713-0.369,7.233-0.738
		c-0.472-0.717-1.372-1.844-2.315-2.459l0.082-0.184c2.766,0.348,6.127,2.664,6.127,4.857c0,0.737-0.574,1.332-1.394,1.332
		c-0.881,0-1.188-0.614-1.497-1.414c-0.266-0.696-0.43-1.046-0.553-1.332c-3.4,1.107-6.537,1.804-10.02,2.582
		c-0.186,0.246-0.328,0.431-0.473,0.431c-0.123,0-0.205-0.144-0.348-0.472l-1.086-2.356c0.901-0.041,2.356-0.103,3.012-0.164
		c0.963-2.049,1.373-3.648,1.578-4.406h-5.676l-0.246-0.471h14.467l1.189-1.66c0.041-0.061,0.143-0.184,0.328-0.184
		c0.143,0,0.246,0.082,0.369,0.184l1.721,1.476c0.021,0.021,0.185,0.185,0.185,0.368C201.261,19.582,201.097,19.664,200.912,19.664
		 M196.834,16.201h-10.349l-0.245-0.451h7.643l1.086-1.393c0.062-0.082,0.145-0.186,0.328-0.186c0.145,0,0.205,0.062,0.369,0.186
		l1.517,1.209c0.061,0.041,0.185,0.184,0.185,0.368C197.367,16.201,197.162,16.201,196.834,16.201"/>
	<path d="M213.729,21.078c-0.984,0-1.25-0.983-1.496-1.824c-0.408-1.475-0.983-1.926-1.352-2.151v8.566
		c0,0.881-1.066,1.147-1.824,1.147c-0.615,0-0.615-0.205-0.615-0.697v-7.685c-0.942,0.696-1.844,1.169-3.053,1.64l-0.104-0.205
		c1.209-1.045,2.091-2.049,3.156-3.279v-1.045l0.717,0.082c0.719-1.208,0.923-1.619,1.559-2.992h-4.693l-0.246-0.45h2.664V8.065
		l2.604,0.246c0.204,0.021,0.409,0.123,0.409,0.349c0,0.184-0.062,0.225-0.614,0.471v3.054h0.082l0.84-1.148
		c0.021-0.021,0.225-0.267,0.533-0.267c0.143,0,0.368,0.103,0.49,0.205l1.373,1.291c0.104,0.103,0.186,0.327,0.186,0.491
		c0,0.328-0.102,0.369-1.004,0.656c-0.738,1.005-1.395,1.762-2.254,2.561c0.082,0.041,0.245,0.123,0.245,0.308
		c0,0.123-0.041,0.184-0.226,0.369c1.701,0.348,3.75,1.455,3.75,3.012C214.855,20.218,214.467,21.078,213.729,21.078 M224.18,25.689
		h-12.193l-0.244-0.472h5.123v-9.283h-3.873l-0.248-0.45h4.121V8.086l2.622,0.205c0.164,0.021,0.573,0.062,0.573,0.328
		c0,0.266-0.409,0.43-0.614,0.533v6.332h1.046l1.064-1.578c0.082-0.082,0.164-0.185,0.328-0.185c0.144,0,0.267,0.081,0.369,0.185
		l1.475,1.373c0.021,0.019,0.186,0.184,0.186,0.39c0,0.184-0.164,0.266-0.349,0.266h-4.119v9.283h1.455l1.209-1.681
		c0.061-0.082,0.144-0.205,0.327-0.205c0.145,0,0.268,0.104,0.35,0.205l1.557,1.496c0.021,0.021,0.185,0.185,0.185,0.369
		C224.528,25.607,224.365,25.689,224.18,25.689"/>
</g>
</svg>
